<?xml version="1.0" encoding="UTF-8"?>
<svg id="Layer_1" data-name="Layer 1" xmlns="http://www.w3.org/2000/svg" viewBox="0 0 1920 1080">
  <defs>
    <style>
      .cls-1 {
        fill: #3a3736;
      }
    </style>
  </defs>
  <path class="cls-1" d="M966.55,401.69v89.52c-19.88-22.05-48.66-35.93-80.61-35.93,0,0,0,0,0,0-24.36,0-47.51,7.99-66.46,22.73v-76.34h-45.99v276.67h45.99v-28.73c18.38,14.27,41.44,22.78,66.46,22.78,126.61,0,85.81-159.85,234.71-111.43l8.11,2.67v-44.25c-43.31-13.14-84.19-11.18-120.11,5.48v-81.07h137.87v-42.1h-179.97ZM885.93,630.29c-36.62-1.23-66.46-29.81-66.46-66.46,0-17.73,6.92-34.41,19.48-46.98,12.56-12.56,29.25-19.48,46.98-19.48,95.8,0,81.55,135.67,0,132.92Z"/>
  <path class="cls-1" d="M1008.65,608.06v28.17h137.87v42.1h-179.97v-8.09c0-4.17,1.35-8.24,3.85-11.58,8.32-11.12,28.03-37.43,38.25-50.6Z"/>
</svg>
